<svg xmlns="http://www.w3.org/2000/svg" width="48" height="48.814" viewBox="0 0 48 48.814">
  <g id="price-tag" transform="translate(-3.267 1)">
    <path id="Path_73" data-name="Path 73" d="M28.661,85.03,11.983,68.352a2.062,2.062,0,0,1,0-2.929L35.577,41.667H54.533V61.436L31.59,85.03a2.227,2.227,0,0,1-2.929,0Z" transform="translate(-7.333 -38.599)" fill="none"/>
    <g id="Group_130" data-name="Group 130" transform="translate(3.267 2.254)">
      <path id="Path_74" data-name="Path 74" d="M22.792,78.692a3.21,3.21,0,0,1-2.034-.814L4.081,61.2a2.824,2.824,0,0,1-.814-2.034,3.21,3.21,0,0,1,.814-2.034l23.837-24H48.013V54.042L24.826,77.879A3.21,3.21,0,0,1,22.792,78.692ZM28.569,34.76,5.3,58.272a1.306,1.306,0,0,0-.407.895,1.707,1.707,0,0,0,.325.895L21.9,76.74a1.277,1.277,0,0,0,1.79,0l22.7-23.349V34.76Z" transform="translate(-3.267 -33.133)" fill="#172735"/>
      <path id="Path_75" data-name="Path 75" d="M58.791,104.447a.787.787,0,0,1,0-1.139h0a.787.787,0,0,1,1.139,0h0a.787.787,0,0,1,0,1.139h0a.879.879,0,0,1-.569.244h0A.878.878,0,0,1,58.791,104.447Zm-2.278-.081a.787.787,0,0,1,0-1.139h0a.787.787,0,0,1,1.139,0h0a.787.787,0,0,1,0,1.139h0a.738.738,0,0,1-.569.244h0A.879.879,0,0,1,56.513,104.365Zm4.556-2.278a.787.787,0,0,1,0-1.139h0a.787.787,0,0,1,1.139,0h0a.787.787,0,0,1,0,1.139h0a.879.879,0,0,1-.569.244h0A.879.879,0,0,1,61.069,102.087Zm-6.834,0a.787.787,0,0,1,0-1.139h0a.787.787,0,0,1,1.139,0h0a.787.787,0,0,1,0,1.139h0a.738.738,0,0,1-.569.244h0A.739.739,0,0,1,54.235,102.087Zm-2.278-2.278a.787.787,0,0,1,0-1.139h0a.787.787,0,0,1,1.139,0h0a.787.787,0,0,1,0,1.139h0a.738.738,0,0,1-.569.244h0A.738.738,0,0,1,51.958,99.809Zm11.39,0a.787.787,0,0,1,0-1.139h0a.787.787,0,0,1,1.139,0h0a.787.787,0,0,1,0,1.139h0a.879.879,0,0,1-.569.244h0C63.754,99.972,63.51,99.891,63.347,99.809ZM49.6,97.45a.787.787,0,0,1,0-1.139h0a.787.787,0,0,1,1.139,0h0a.787.787,0,0,1,0,1.139h0a.879.879,0,0,1-.569.244h0A.879.879,0,0,1,49.6,97.45Zm16.027,0a.787.787,0,0,1,0-1.139h0a.787.787,0,0,1,1.139,0h0a.787.787,0,0,1,0,1.139h0a.879.879,0,0,1-.569.244h0A.878.878,0,0,1,65.625,97.45ZM47.32,95.172a.787.787,0,0,1,0-1.139h0a.787.787,0,0,1,1.139,0h0a.787.787,0,0,1,0,1.139h0a.879.879,0,0,1-.569.244h0A.878.878,0,0,1,47.32,95.172ZM67.9,95.091a.787.787,0,0,1,0-1.139h0a.787.787,0,0,1,1.139,0h0a.787.787,0,0,1,0,1.139h0a.879.879,0,0,1-.569.244h0A.739.739,0,0,1,67.9,95.091Zm-22.861-2.2a.787.787,0,0,1,0-1.139h0a.787.787,0,0,1,1.139,0h0a.787.787,0,0,1,0,1.139h0a.738.738,0,0,1-.569.244h0A.739.739,0,0,1,45.042,92.894Zm25.139-.081a.787.787,0,0,1,0-1.139h0a.787.787,0,0,1,1.139,0h0a.787.787,0,0,1,0,1.139h0a.879.879,0,0,1-.569.244h0A3.958,3.958,0,0,1,70.181,92.813Zm-27.417-2.2a.787.787,0,0,1,0-1.139h0a.787.787,0,0,1,1.139,0h0a.787.787,0,0,1,0,1.139h0a.633.633,0,0,1-.569.244h0A.879.879,0,0,1,42.764,90.616Zm29.695-.163a.787.787,0,0,1,0-1.139h0a.787.787,0,0,1,1.139,0h0a.787.787,0,0,1,0,1.139h0a.879.879,0,0,1-.569.244h0A.739.739,0,0,1,72.459,90.453Zm-27.336-2.2a.787.787,0,0,1,0-1.139h0a.787.787,0,0,1,1.139,0h0a.787.787,0,0,1,0,1.139h0a.879.879,0,0,1-.569.244h0A.739.739,0,0,1,45.124,88.257Zm29.614-.163a.787.787,0,0,1,0-1.139h0a.787.787,0,0,1,1.139,0h0a.787.787,0,0,1,0,1.139h0a.879.879,0,0,1-.569.244h0A.739.739,0,0,1,74.737,88.094ZM47.4,85.979a.787.787,0,0,1,0-1.139h0a.787.787,0,0,1,1.139,0h0a.787.787,0,0,1,0,1.139h0a.738.738,0,0,1-.569.244h0A.739.739,0,0,1,47.4,85.979Zm29.614-.163a.787.787,0,0,1,0-1.139h0a.787.787,0,0,1,1.139,0h0a.787.787,0,0,1,0,1.139h0a.774.774,0,0,1-.569.163h0A.687.687,0,0,1,77.015,85.816ZM49.68,83.62a.787.787,0,0,1,0-1.139h0a.787.787,0,0,1,1.139,0h0a.787.787,0,0,1,0,1.139h0a.879.879,0,0,1-.569.244h0A.739.739,0,0,1,49.68,83.62Zm28.963-.895a.815.815,0,0,1,.814-.814h0a.815.815,0,0,1,.814.814h0a.875.875,0,0,1-.814.814h0A.875.875,0,0,1,78.642,82.725ZM51.958,81.342a.787.787,0,0,1,0-1.139h0a.787.787,0,0,1,1.139,0h0a.787.787,0,0,1,0,1.139h0a.879.879,0,0,1-.569.244h0A.878.878,0,0,1,51.958,81.342ZM78.642,79.47a.815.815,0,0,1,.814-.814h0a.815.815,0,0,1,.814.814h0a.875.875,0,0,1-.814.814h0A.875.875,0,0,1,78.642,79.47Zm-24.407-.407a.787.787,0,0,1,0-1.139h0a.787.787,0,0,1,1.139,0h0a.787.787,0,0,1,0,1.139h0a.879.879,0,0,1-.569.244h0A.879.879,0,0,1,54.235,79.064Zm24.407-2.847a.815.815,0,0,1,.814-.814h0a.815.815,0,0,1,.814.814h0a.875.875,0,0,1-.814.814h0A.875.875,0,0,1,78.642,76.216ZM56.513,76.7a.787.787,0,0,1,0-1.139h0a.787.787,0,0,1,1.139,0h0a.787.787,0,0,1,0,1.139h0a.738.738,0,0,1-.569.244h0A.879.879,0,0,1,56.513,76.7Zm2.359-2.278a.787.787,0,0,1,0-1.139h0a.787.787,0,0,1,1.139,0h0a.787.787,0,0,1,0,1.139h0a.879.879,0,0,1-.569.244h0A.739.739,0,0,1,58.873,74.426Zm2.278-2.359a.787.787,0,0,1,0-1.139h0a.787.787,0,0,1,1.139,0h0a.787.787,0,0,1,0,1.139h0a.738.738,0,0,1-.569.244h0A.739.739,0,0,1,61.151,72.067Zm2.278-2.278a.787.787,0,0,1,0-1.139h0a.787.787,0,0,1,1.139,0h0a.787.787,0,0,1,0,1.139h0a.879.879,0,0,1-.569.244h0A.738.738,0,0,1,63.429,69.789ZM69.2,68.081a.769.769,0,0,1,.814-.814h0a.815.815,0,0,1,.814.814h0a.875.875,0,0,1-.814.814h0A.875.875,0,0,1,69.2,68.081Zm-3.254,0a.769.769,0,0,1,.814-.814h0a.815.815,0,0,1,.814.814h0a.875.875,0,0,1-.814.814h0A.875.875,0,0,1,65.951,68.081Z" transform="translate(-38.778 -64.013)" fill="#172735"/>
    </g>
    <path id="Path_76" data-name="Path 76" d="M351.108,96.121a3.254,3.254,0,1,1-3.254-3.254,3.264,3.264,0,0,1,3.254,3.254Z" transform="translate(-308.791 -84.918)" fill="none"/>
    <g id="Group_131" data-name="Group 131" transform="translate(34.996 -1)">
      <path id="Path_77" data-name="Path 77" d="M340.134,92.469A4.068,4.068,0,1,1,344.2,88.4,4.028,4.028,0,0,1,340.134,92.469Zm0-6.509a2.441,2.441,0,1,0,2.441,2.441A2.4,2.4,0,0,0,340.134,85.96Z" transform="translate(-336.066 -76.197)" fill="#172735"/>
      <path id="Path_78" data-name="Path 78" d="M371.014,12.017a.738.738,0,0,1-.569-.244.787.787,0,0,1,0-1.139l11.39-11.39a.787.787,0,0,1,1.139,0,.787.787,0,0,1,0,1.139l-11.39,11.39A.739.739,0,0,1,371.014,12.017Z" transform="translate(-366.946 1)" fill="#172735"/>
    </g>
  </g>
</svg>
